HIERARCHY
ROOT root
{
	OFFSET	0	13.1	24.9
	CHANNELS 6  Xposition Yposition Zposition Xrotation Yrotation Zrotation
	JOINT spine_1
	{
		OFFSET	0	9.99999	0
		CHANNELS 3  Xrotation Yrotation Zrotation
		JOINT spine_2
		{
			OFFSET	0	112	-10
			CHANNELS 3  Xrotation Yrotation Zrotation
			JOINT spine_3
			{
				OFFSET	0	206.5	19.3
				CHANNELS 3  Xrotation Yrotation Zrotation
				JOINT spine_4
				{
					OFFSET	0	110.4	14.6
					CHANNELS 3  Xrotation Yrotation Zrotation
					JOINT neck_1
					{
						OFFSET	0	71.8	-50.3
						CHANNELS 3  Xrotation Yrotation Zrotation
						JOINT neck_2
						{
							OFFSET	0	86.2	-25.8
							CHANNELS 3  Xrotation Yrotation Zrotation
							JOINT head_ee
							{
								OFFSET	0	179.8	-8.7
								CHANNELS 3  Xrotation Yrotation Zrotation
								End Site
								{
									OFFSET	1	0	0
								}
							}
						}
					}
					JOINT left_clavicle
					{
						OFFSET	-43.2	22.4	-70.8
						CHANNELS 3  Xrotation Yrotation Zrotation
						JOINT left_shoulder
						{
							OFFSET	-93.9	-5.79999	48.7
							CHANNELS 3  Xrotation Yrotation Zrotation
							JOINT left_elbow
							{
								OFFSET	-291.4	-30.8	15.2
								CHANNELS 3  Xrotation Yrotation Zrotation
								JOINT left_lowarm_twist
								{
									OFFSET	-110.7	-3.89999	13.6
									CHANNELS 3  Xrotation Yrotation Zrotation
									JOINT left_hand
									{
										OFFSET	-110.7	-3.89999	13.6
										CHANNELS 3  Xrotation Yrotation Zrotation
										JOINT left_ee
										{
											OFFSET	-80.8	-5.10001	12.1
											CHANNELS 3  Xrotation Yrotation Zrotation
											End Site
											{
												OFFSET	1	0	0
											}
										}
									}
								}
							}
						}
					}
					JOINT right_clavicle
					{
						OFFSET	43.2	22.4	-70.8
						CHANNELS 3  Xrotation Yrotation Zrotation
						JOINT right_shoulder
						{
							OFFSET	93.9	-5.79999	48.7
							CHANNELS 3  Xrotation Yrotation Zrotation
							JOINT right_elbow
							{
								OFFSET	291.4	-30.8	15.2
								CHANNELS 3  Xrotation Yrotation Zrotation
								JOINT right_lowarm_twist
								{
									OFFSET	110.7	-3.89999	13.6
									CHANNELS 3  Xrotation Yrotation Zrotation
									JOINT right_hand
									{
										OFFSET	110.7	-3.89999	13.6
										CHANNELS 3  Xrotation Yrotation Zrotation
										JOINT right_ee
										{
											OFFSET	80.8	-5.10001	12.1
											CHANNELS 3  Xrotation Yrotation Zrotation
											End Site
											{
												OFFSET	1	0	0
											}
										}
									}
								}
							}
						}
					}
				}
			}
		}
	}
	JOINT left_hip
	{
		OFFSET	-82.8	-127.5	0.300001
		CHANNELS 3  Xrotation Yrotation Zrotation
		JOINT left_knee
		{
			OFFSET	-28.2	-396.7	2.2
			CHANNELS 3  Xrotation Yrotation Zrotation
			JOINT left_ankle
			{
				OFFSET	-11.7	-411.3	35.4
				CHANNELS 3  Xrotation Yrotation Zrotation
				JOINT left_toes
				{
					OFFSET	0	-60	-88.6
					CHANNELS 3  Xrotation Yrotation Zrotation
					JOINT left_foot_ee
					{
						OFFSET	-22.5	-16.5	-42.2
						CHANNELS 3  Xrotation Yrotation Zrotation
						End Site
						{
							OFFSET	1	0	0
						}
					}
				}
			}
		}
	}
	JOINT right_hip
	{
		OFFSET	82.8	-127.5	0.300001
		CHANNELS 3  Xrotation Yrotation Zrotation
		JOINT right_knee
		{
			OFFSET	28.2	-396.7	2.2
			CHANNELS 3  Xrotation Yrotation Zrotation
			JOINT right_ankle
			{
				OFFSET	11.7	-411.3	35.4
				CHANNELS 3  Xrotation Yrotation Zrotation
				JOINT right_toes
				{
					OFFSET	0	-60	-88.6
					CHANNELS 3  Xrotation Yrotation Zrotation
					JOINT right_foot_ee
					{
						OFFSET	22.5	-16.5	-42.2
						CHANNELS 3  Xrotation Yrotation Zrotation
						End Site
						{
							OFFSET	1	0	0
						}
					}
				}
			}
		}
	}
}
MOTION
Frames: 15
Frame Time: 0.02
3044.68 680.641 -887.637 -32.5735 55.9176 31.2877 4.55349 0.136688 0.16977 4.55349 0.125608 0.178124 4.55388 0.101018 0.193134 4.55385 0.130252 0.174756 1.83255 -1.24135 -4.23382 1.88767 1.37767 -4.75949 -0.0 0.0 -0.0 2.03731 13.7553 4.94968 1.00955 -46.6931 57.4613 1.75467 -40.9939 0.655982 -13.5715 -0.670719 1.59636 -1.62824 18.526 -2.30627 -0.0 0.0 -0.0 9.18143 2.35055 -18.0441 20.2277 -68.5536 -30.2552 0.401275 11.2429 -0.0394972 84.4938 4.36601 8.84252 -2.39998 -24.497 3.9017 0.0 0.0 0.0 7.98791 15.7538 -2.38962 -15.4388 0.322071 2.34021 41.1814 11.3085 -4.99025 -14.5304 0.0 0.0 -0.0 0.0 -0.0 47.8596 18.3558 -8.75741 -1.22568 -0.0485237 -0.181835 -24.2568 -14.6542 -3.66873 23.7258 -0.0 -0.0 0.0 0.0 0.0 
3023.46 681.896 -901.845 -33.0907 55.7508 32.259 4.88559 0.0830503 0.122786 4.8856 0.0750688 0.127821 4.88576 0.0583452 0.13627 4.88574 0.0791342 0.125345 2.20237 -0.757497 -4.58584 2.27536 2.54726 -5.1266 -0.0 0.0 -0.0 0.766568 14.8742 2.98027 -0.452013 -47.3138 58.9131 1.82111 -42.0504 0.700027 -13.5323 -0.668243 1.59199 -1.66629 19.0721 -2.27898 -0.0 0.0 -0.0 9.55284 2.11013 -18.8098 21.878 -68.8983 -27.3066 0.444951 12.4303 -0.0484566 83.9971 4.30685 8.81884 -2.41597 -24.9324 3.76864 0.0 0.0 0.0 7.50078 16.7622 -3.39904 -15.5998 0.322085 2.36491 40.9148 12.0661 -4.97513 -13.6398 0.0 0.0 -0.0 0.0 -0.0 47.7912 18.4855 -9.63983 -1.72797 -0.0672818 -0.256637 -24.142 -16.0325 -3.66174 21.7139 -0.0 -0.0 0.0 0.0 0.0 
3002.32 683.077 -919.317 -33.7537 55.4839 32.9811 4.97297 0.0396628 0.139567 4.97298 0.0307015 0.141808 4.97305 0.0127881 0.144528 4.97302 0.0354531 0.140695 2.87098 -0.22306 -4.69941 2.95911 3.61662 -5.25156 -0.0 0.0 -0.0 -0.612217 15.7551 0.883062 -0.519175 -45.0497 61.6802 1.94542 -43.9364 0.78481 -14.7367 -0.745629 1.7253 -2.28822 19.3279 -5.88285 -0.0 0.0 -0.0 9.77512 1.63825 -19.2574 22.3659 -69.815 -26.5685 0.396267 11.1061 -0.0385267 84.2956 4.34238 8.83313 -2.17705 -24.1314 2.81946 0.0 0.0 0.0 6.95418 17.0568 -4.35032 -15.8834 0.321943 2.40843 37.5897 9.9407 -4.65836 -12.3215 0.0 0.0 -0.0 0.0 -0.0 47.8097 18.7583 -10.1832 -3.62846 -0.132296 -0.541048 -22.2139 -13.9817 -3.35555 21.3597 -0.0 -0.0 0.0 0.0 0.0 
2982.44 686.46 -928.032 -32.5215 54.8126 31.9434 4.88481 -0.0278022 0.0977751 4.88481 -0.0339675 0.0958079 4.88475 -0.0457836 0.0907568 4.88474 -0.0308756 0.0968485 3.04797 0.52098 -5.11736 3.17201 5.27805 -5.68027 -0.0 0.0 -0.0 -1.37122 16.2495 -0.24455 -4.07632 -46.6178 61.2503 1.97583 -44.3803 0.805991 -14.5797 -0.735383 1.70801 -2.35882 19.5928 -6.17197 -0.0 0.0 -0.0 9.81488 1.5913 -19.3386 25.5869 -68.872 -23.91 0.372375 10.4517 -0.0340583 83.9666 4.30321 8.81737 -2.24791 -24.1536 3.21165 0.0 0.0 0.0 7.4125 17.2176 -4.83393 -16.7202 0.320269 2.5368 37.3876 11.1495 -4.64851 -11.4252 0.0 0.0 -0.0 0.0 -0.0 47.833 19.4116 -10.7598 -6.09932 -0.202644 -0.913691 -19.5777 -12.659 -2.94976 20.6469 -0.0 -0.0 0.0 0.0 0.0 
2963.77 689.578 -943.753 -34.0147 55.244 33.1681 4.97132 -0.0801167 0.113907 4.97132 -0.0872025 0.108578 4.97115 -0.100059 0.0968599 4.97115 -0.0835056 0.111447 4.13439 0.920777 -5.73744 4.30948 6.55552 -6.44724 -0.0 0.0 -0.0 -1.6402 14.7766 -0.899355 -4.577 -44.7352 64.0566 1.81019 -41.8791 0.692727 -14.618 -0.737875 1.71223 -2.70412 20.2388 -7.90373 -0.0 0.0 -0.0 10.7236 2.46421 -21.2864 34.5793 -65.6322 -19.6568 0.249689 7.05118 -0.0153836 84.4111 4.35615 8.83862 -2.29606 -22.9377 4.10136 0.0 0.0 0.0 7.96585 17.2599 -5.6651 -17.2073 0.31843 2.61152 36.3588 11.1013 -4.55073 -10.1537 0.0 0.0 -0.0 0.0 -0.0 48.051 18.8189 -10.9625 -8.08466 -0.24748 -1.21504 -18.4448 -13.0304 -2.77897 21.4303 -0.0 -0.0 0.0 0.0 0.0 
2940.52 695.362 -953.461 -32.5492 53.6878 31.6195 4.80143 -0.0309298 -0.02177 4.80143 -0.0294818 -0.0236941 4.80144 -0.0262173 -0.0272624 4.80144 -0.0301939 -0.0227797 5.27364 0.94063 -7.07507 5.54515 7.81372 -8.09838 -0.0 0.0 -0.0 -0.639811 14.0377 0.613774 -5.67709 -41.8922 65.5267 1.36905 -34.1427 0.420443 -15.0126 -0.763753 1.75561 -3.13919 21.0537 -10.0611 -0.0 0.0 -0.0 10.7604 2.59404 -21.3702 38.3668 -64.039 -18.2775 0.189736 5.36958 -0.00889732 84.2282 4.33435 8.82992 -2.27525 -21.8532 4.52904 0.0 0.0 0.0 8.81212 17.9217 -5.03371 -18.6945 0.308889 2.8395 34.8008 11.5745 -4.40282 -9.30827 0.0 0.0 -0.0 0.0 -0.0 48.2774 19.2609 -12.1249 -11.066 -0.295127 -1.66998 -15.8464 -13.517 -2.38523 23.0119 -0.0 -0.0 0.0 0.0 0.0 
2918.71 699.366 -957.39 -30.3649 51.2995 29.1275 4.61968 0.000626081 -0.0568916 4.61968 0.00424497 -0.0567364 4.61967 0.0116269 -0.0556943 4.61967 0.0026851 -0.0568316 5.10586 0.634802 -7.31897 5.37861 7.49575 -8.37396 -0.0 0.0 -0.0 0.0507126 14.6749 1.80917 -7.19557 -39.8077 66.7799 1.09275 -28.4267 0.276788 -15.3657 -0.787159 1.79427 -3.38857 20.8817 -11.6579 -0.0 0.0 -0.0 10.725 2.36204 -21.2849 40.7197 -63.7065 -18.5712 0.190327 5.3862 -0.00895261 84.3601 4.35007 8.8362 -2.18344 -21.3127 4.26244 0.0 0.0 0.0 9.38749 18.1676 -4.1021 -20.0583 0.294942 3.04828 33.3792 14.8019 -4.29134 -8.78854 0.0 0.0 -0.0 0.0 -0.0 48.3641 19.4559 -13.278 -13.1484 -0.314339 -1.98891 -13.155 -13.7128 -1.97601 24.8086 -0.0 -0.0 0.0 0.0 0.0 
2903.39 702.207 -970.699 -29.6048 49.7349 27.3951 4.60189 0.111985 0.0637005 4.60189 0.107705 0.0706973 4.60202 0.0975107 0.0842028 4.60203 0.109585 0.0677461 5.12607 2.16186 -6.69933 5.42974 9.56223 -7.59816 -0.0 0.0 -0.0 -0.505859 13.0477 0.704636 -7.85281 -38.7867 69.8154 0.9186 -24.4675 0.199179 -15.2878 -0.781974 1.78575 -3.48184 20.3644 -12.5255 -0.0 0.0 -0.0 10.787 0.972602 -21.3473 43.5131 -63.1989 -16.7133 0.202869 5.73884 -0.0101684 84.7679 4.39875 8.85537 -2.02675 -21.0366 3.4776 0.0 0.0 0.0 10.9334 14.9862 -2.8823 -22.8876 0.250179 3.48008 33.6207 16.9668 -4.34526 -8.17828 0.0 0.0 -0.0 0.0 -0.0 48.586 20.2037 -14.0852 -14.9382 -0.321579 -2.2634 -11.8604 -15.1626 -1.78359 27.761 -0.0 -0.0 0.0 0.0 0.0 
2883.07 701.568 -970.555 -27.4958 47.4888 24.7717 4.51026 0.195789 0.0853558 4.51024 0.189961 0.0976414 4.51057 0.175332 0.121974 4.51061 0.192395 0.0927532 4.09613 2.0804 -8.5539 4.52779 10.9874 -9.60438 -0.0 0.0 -0.0 0.458324 12.9307 2.28365 -12.0986 -34.5333 69.033 0.801058 -21.6441 0.153132 -13.6301 -0.674418 1.60287 -3.40511 18.9657 -12.8711 -0.0 0.0 -0.0 10.9348 2.32326 -21.7298 48.0609 -62.1854 -16.7042 0.199739 5.65087 -0.00985782 84.8058 4.40329 8.85714 -2.52556 -22.0346 5.89979 0.0 0.0 0.0 11.4578 17.6007 -1.86104 -23.3883 0.24004 3.55624 33.9837 17.3297 -4.3883 -7.64314 0.0 0.0 -0.0 0.0 -0.0 48.6191 21.3056 -14.1722 -18.4793 -0.310637 -2.80652 -6.73945 -12.3341 -1.00191 27.7611 -0.0 -0.0 0.0 0.0 0.0 
2860.34 707.737 -984.212 -24.3317 44.2808 20.9101 4.5635 0.368518 0.342373 4.56349 0.345985 0.365129 4.5657 0.294898 0.407504 4.56564 0.355554 0.355817 3.43111 3.54558 -7.06575 3.80988 12.2079 -7.73605 -0.0 0.0 -0.0 0.506184 10.7149 2.1317 -12.9923 -30.3623 72.3102 0.526651 -14.622 0.0675687 -11.0857 -0.519778 1.31639 -3.04533 18.0646 -11.1596 -0.0 0.0 -0.0 11.1118 4.41492 -22.1974 51.7405 -63.9228 -17.0605 0.19343 5.47348 -0.00924629 85.2221 4.45313 8.87632 -2.43827 -20.8058 6.02323 0.0 0.0 0.0 15.3404 10.0057 1.06679 -30.5593 0.0222359 4.63451 35.7663 19.1773 -4.60212 -6.68235 0.0 0.0 -0.0 0.0 -0.0 47.8136 22.8822 -15.4842 -21.4225 -0.276022 -3.25674 -2.06586 -10.5162 -0.303931 26.641 -0.0 -0.0 0.0 0.0 0.0 
2829.86 712.738 -996.694 -23.6117 42.147 19.5705 4.72606 0.26449 0.517671 4.72618 0.231014 0.533452 4.72823 0.160349 0.558772 4.72788 0.246583 0.526436 4.70498 4.48965 -7.7164 5.23715 14.4183 -8.63275 -0.0 0.0 -0.0 0.707055 10.0108 2.40359 -16.3058 -26.8705 74.7922 0.388996 -10.9073 0.0371385 -10.747 -0.500162 1.27775 -3.0477 16.9048 -11.8155 -0.0 0.0 -0.0 10.8837 4.74088 -21.714 51.7782 -64.6574 -20.7806 0.186626 5.28207 -0.00860859 85.1762 4.44763 8.87422 -2.52448 -22.8402 5.4732 0.0 0.0 0.0 16.3184 10.8583 1.65895 -32.8312 -0.0747487 4.96962 34.6521 20.7446 -4.52012 -6.54152 0.0 0.0 -0.0 0.0 -0.0 47.4504 23.4009 -15.7107 -23.3955 -0.239889 -3.55733 -1.21432 -10.4827 -0.178317 27.723 -0.0 -0.0 0.0 0.0 0.0 
2806.17 712.223 -1004.42 -21.8881 40.8843 17.5161 4.87149 0.310309 0.640771 4.87168 0.268907 0.659217 4.87461 0.183483 0.687903 4.87407 0.28982 0.650295 2.27968 4.17096 -6.2944 2.60961 12.6178 -6.6706 -0.0 0.0 -0.0 0.175043 7.83923 1.24052 -20.3364 -24.4124 77.6325 0.487349 -13.5728 0.0579957 -9.55522 -0.432963 1.14091 -2.85681 16.7164 -10.7265 -0.0 0.0 -0.0 11.319 6.76452 -22.7166 53.5654 -64.8672 -21.2417 0.186538 5.27959 -0.00860047 85.1564 4.44525 8.87332 -2.60501 -19.8798 7.49986 0.0 0.0 0.0 17.2838 9.3649 1.47584 -37.1829 -0.297339 5.59985 33.1563 21.1503 -4.37114 -6.39639 0.0 0.0 -0.0 0.0 -0.0 45.6532 25.2343 -15.5121 -25.151 -0.199052 -3.82362 3.28276 -9.47053 0.476504 28.5174 -0.0 -0.0 0.0 0.0 0.0 
2786.36 711.427 -1013.1 -20.5931 38.7461 15.9327 5.13098 0.568645 0.681008 5.13108 0.52416 0.715811 5.13751 0.433125 0.774293 5.1371 0.549971 0.696176 3.01356 4.50303 -7.48579 3.47615 14.2168 -8.10001 -0.0 0.0 -0.0 0.641896 11.1171 2.40415 -21.7504 -23.4766 77.4208 0.226618 -6.40534 0.0126805 -9.26175 -0.416855 1.107 -2.86312 16.6564 -10.7982 -0.0 0.0 -0.0 11.53 6.70941 -23.1807 55.629 -64.915 -23.812 0.183101 5.18284 -0.0082871 85.3557 4.46916 8.8824 -2.8003 -21.5667 7.76338 0.0 0.0 0.0 19.4336 6.8532 -0.117232 -40.0197 -0.468018 6.00104 33.795 21.1688 -4.43939 -6.50846 0.0 0.0 -0.0 0.0 -0.0 44.875 25.6474 -15.6513 -26.6449 -0.157883 -4.04918 5.11311 -8.68831 0.738226 29.7478 -0.0 -0.0 0.0 0.0 0.0 
2769.55 715.17 -1026.56 -20.0377 39.0196 15.7832 5.07811 0.274379 0.541141 5.07825 0.239389 0.557503 5.08045 0.169141 0.582672 5.08007 0.259039 0.548649 0.605705 5.57978 -7.12472 1.02968 15.7631 -7.23778 -0.0 0.0 -0.0 -0.555343 12.0448 0.492807 -21.5496 -22.5861 81.6861 0.223509 -6.3182 0.0123361 -8.97436 -0.401248 1.07371 -2.68084 16.7217 -9.62881 -0.0 0.0 -0.0 11.5853 7.78351 -23.3246 55.7704 -66.5796 -25.7639 0.193564 5.47726 -0.00925902 85.1303 4.44213 8.87212 -3.01099 -23.3576 8.01588 0.0 0.0 0.0 25.694 9.53955 -5.30469 -49.4268 -1.17262 7.26345 33.7186 19.0926 -4.39053 -6.80788 0.0 0.0 -0.0 0.0 -0.0 43.0887 25.5241 -14.9782 -27.3767 -0.135572 -4.15928 4.45814 -7.26633 0.644943 29.9665 -0.0 -0.0 0.0 0.0 0.0 
2754.9 714.317 -1031.13 -19.2886 38.9356 15.7542 5.22546 0.395356 0.450777 5.2255 0.365871 0.475021 5.22849 0.306129 0.515549 5.22832 0.383708 0.460733 -1.07407 6.02475 -7.19737 -0.679932 16.5867 -6.99537 -0.0 0.0 -0.0 -1.22939 10.9088 -0.803805 -20.6773 -20.7501 84.474 0.213861 -6.04753 0.0112969 -8.57525 -0.379854 1.02736 -2.52048 17.1756 -8.39918 -0.0 0.0 -0.0 11.4017 9.34248 -22.9312 57.7078 -67.4058 -25.7581 0.204061 5.77234 -0.010288 85.3042 4.46298 8.88006 -2.99142 -23.7037 7.71039 0.0 0.0 0.0 31.6005 9.48971 -6.66048 -56.4003 -1.82408 8.11706 32.2606 17.4792 -4.21019 -7.32481 0.0 0.0 -0.0 0.0 -0.0 41.7925 25.2847 -14.3196 -27.8372 -0.12081 -4.22841 5.32958 -5.60932 0.769725 30.3032 -0.0 -0.0 0.0 0.0 0.0 
